<svg viewBox="0 0 60 60" fill="none" xmlns="http://www.w3.org/2000/svg">
<path d="M57.3162 29.9001C57.3162 44.7936 45.2359 56.8695 30.3314 56.8695C15.4269 56.8695 3.34668 44.7936 3.34668 29.9001C3.34668 15.0065 15.4269 2.93066 30.3314 2.93066C45.2359 2.93066 57.3162 15.0065 57.3162 29.9001Z" fill="white" stroke="url(#paint0_linear_186_214)" stroke-width="5"/>
<path d="M49.0718 31.0099C49.8528 30.2289 49.8528 28.9625 49.0718 28.1815L36.3439 15.4536C35.5628 14.6725 34.2965 14.6725 33.5154 15.4536C32.7344 16.2346 32.7344 17.5009 33.5154 18.282L44.8292 29.5957L33.5154 40.9094C32.7344 41.6905 32.7344 42.9568 33.5154 43.7378C34.2965 44.5189 35.5628 44.5189 36.3439 43.7378L49.0718 31.0099ZM12.3975 31.5957H47.6576V27.5957H12.3975V31.5957Z" fill="black"/>
<defs>
<linearGradient id="paint0_linear_186_214" x1="3.6251" y1="29.9001" x2="55.5288" y2="29.9001" gradientUnits="userSpaceOnUse">
<stop stop-color="#0D62D6"/>
<stop offset="1" stop-color="#46C410"/>
</linearGradient>
</defs>
</svg>
