<svg  height="391" viewBox="0 0 1487 391" fill="none" xmlns="http://www.w3.org/2000/svg">
<g filter="url(#filter0_b_175_191)">
<path d="M4 175.953L69.5343 238.32C113.134 279.812 134.933 300.558 161.154 311.254C175.994 317.309 191.709 320.945 207.701 322.024C235.957 323.932 264.658 314.871 322.06 296.748L360.452 284.627C381.19 278.08 391.559 274.806 402.2 273.064C408.273 272.07 414.401 271.45 420.549 271.209C431.324 270.785 442.137 271.917 463.765 274.181L511.334 279.159C533.96 281.527 545.273 282.711 556.533 282.196C562.958 281.902 569.357 281.195 575.691 280.079C586.793 278.124 597.575 274.499 619.14 267.248L835.668 194.449C858.21 186.871 869.48 183.081 881.088 181.116C887.71 179.995 894.4 179.32 901.112 179.096C912.878 178.702 924.677 180.164 948.276 183.087L1086.38 200.193L1186.11 226.536C1199.27 230.011 1205.85 231.749 1212.53 232.882C1216.35 233.529 1220.19 234.028 1224.05 234.378C1230.81 234.99 1237.61 234.99 1251.22 234.99L1274.65 234.99C1293.05 234.99 1302.25 234.99 1311.32 233.879C1316.5 233.245 1321.65 232.34 1326.74 231.17C1335.65 229.119 1344.3 225.982 1361.6 219.708L1482.23 175.953" stroke="#033668" stroke-width="10"/>
</g>
<defs>
<filter id="filter0_b_175_191" x="-3.44727" y="167.253" width="1491.38" height="164.021" filterUnits="userSpaceOnUse" color-interpolation-filters="sRGB">
<feFlood flood-opacity="0" result="BackgroundImageFix"/>
<feGaussianBlur in="BackgroundImageFix" stdDeviation="2"/>
<feComposite in2="SourceAlpha" operator="in" result="effect1_backgroundBlur_175_191"/>
<feBlend mode="normal" in="SourceGraphic" in2="effect1_backgroundBlur_175_191" result="shape"/>
</filter>
</defs>
</svg>
