<svg width="36" height="40" viewBox="0 0 36 40" fill="none" xmlns="http://www.w3.org/2000/svg">
<path d="M18 0C10.017 0 3.55468 6.56961 3.55468 14.6211V21.6289C1.58202 22.4984 0 24.1168 0 26.3945C0 29.4508 2.49608 32 5.55468 32H30.4453C33.5039 32 36 29.4508 36 26.3945C36 24.1168 34.418 22.4984 32.4453 21.6289V14.6211C32.4453 6.56961 25.983 0 18 0ZM28.4453 14.6211C28.4493 17.2773 28.4473 20.0779 28.4293 22.6836C28.3713 23.826 29.2815 24.7843 30.3037 24.7847C31.3259 24.7852 31.9997 25.4547 31.9997 26.3945C31.9997 27.3344 31.3259 28 30.445 28H5.55428C4.67334 28 3.9996 27.3344 3.9996 26.3945C3.9996 25.4547 4.67334 24.7852 5.69472 24.7847C6.7161 24.7842 7.62558 23.8284 7.56992 22.6875C7.52872 20.0413 7.55392 17.3031 7.55392 14.6211C7.55392 8.68601 12.1938 4 17.9992 4C23.8046 4 28.4453 8.68601 28.4453 14.6211ZM14 36C13.4696 36 12.9609 36.2107 12.5858 36.5858C12.2107 36.9609 12 37.4696 12 38C12 38.5304 12.2107 39.0391 12.5858 39.4142C12.9609 39.7893 13.4696 40 14 40H22C22.5304 40 23.0391 39.7893 23.4142 39.4142C23.7893 39.0391 24 38.5304 24 38C24 37.4696 23.7893 36.9609 23.4142 36.5858C23.0391 36.2107 22.5304 36 22 36H14Z" fill="#056803"/>
</svg>
