<svg width="40" height="40" viewBox="0 0 40 40" fill="none" xmlns="http://www.w3.org/2000/svg">
<path d="M20 4.75C22.9 4.75 25.25 7.1 25.25 10C25.25 12.9 22.9 15.25 20 15.25C17.1 15.25 14.75 12.9 14.75 10C14.75 7.1 17.1 4.75 20 4.75ZM20 27.25C27.425 27.25 35.25 30.9 35.25 32.5V35.25H4.75V32.5C4.75 30.9 12.575 27.25 20 27.25ZM20 0C14.475 0 10 4.475 10 10C10 15.525 14.475 20 20 20C25.525 20 30 15.525 30 10C30 4.475 25.525 0 20 0ZM20 22.5C13.325 22.5 0 25.85 0 32.5V37.5C0 38.875 1.125 40 2.5 40H37.5C38.875 40 40 38.875 40 37.5V32.5C40 25.85 26.675 22.5 20 22.5Z" fill="#056803"/>
</svg>
