<svg width="38" height="39" viewBox="0 0 38 39" fill="none" xmlns="http://www.w3.org/2000/svg">
<path d="M19 0C8.512 0 0 8.736 0 19.5C0 30.264 8.512 39 19 39C29.488 39 38 30.264 38 19.5C38 8.736 29.488 0 19 0ZM19 35.1C10.621 35.1 3.8 28.0995 3.8 19.5C3.8 10.9005 10.621 3.9 19 3.9C27.379 3.9 34.2 10.9005 34.2 19.5C34.2 28.0995 27.379 35.1 19 35.1ZM8.55 30.225L22.819 23.4195L29.45 8.775L15.181 15.5805L8.55 30.225ZM19 17.355C20.159 17.355 21.09 18.3105 21.09 19.5C21.09 20.6895 20.159 21.645 19 21.645C17.841 21.645 16.91 20.6895 16.91 19.5C16.91 18.3105 17.841 17.355 19 17.355Z" fill="#056803"/>
</svg>
